<svg width="57" height="53" viewBox="0 0 57 53" fill="none" xmlns="http://www.w3.org/2000/svg">
<g filter="url(#filter0_d_23_23)">
<rect x="6" y="2.60419" width="45" height="39.7917" rx="19.8958" fill="#F9F9F2"/>
<path d="M16 14.1667C16 13.3021 16.6979 12.6042 17.5625 12.6042H34.2292C35.0938 12.6042 35.7917 13.3021 35.7917 14.1667C35.7917 15.0313 35.0938 15.7292 34.2292 15.7292H17.5625C16.6979 15.7292 16 15.0313 16 14.1667ZM34.2292 29.2709H17.5625C16.6979 29.2709 16 29.9688 16 30.8334C16 31.6979 16.6979 32.3959 17.5625 32.3959H34.2292C35.0938 32.3959 35.7917 31.6979 35.7917 30.8334C35.7917 29.9688 35.0938 29.2709 34.2292 29.2709ZM39.4375 20.9375H22.7708C21.9062 20.9375 21.2083 21.6354 21.2083 22.5C21.2083 23.3646 21.9062 24.0625 22.7708 24.0625H39.4375C40.3021 24.0625 41 23.3646 41 22.5C41 21.6354 40.3021 20.9375 39.4375 20.9375Z" fill="black"/>
</g>
<defs>
<filter id="filter0_d_23_23" x="0" y="0.604187" width="57" height="51.7917" filterUnits="userSpaceOnUse" color-interpolation-filters="sRGB">
<feFlood flood-opacity="0" result="BackgroundImageFix"/>
<feColorMatrix in="SourceAlpha" type="matrix" values="0 0 0 0 0 0 0 0 0 0 0 0 0 0 0 0 0 0 127 0" result="hardAlpha"/>
<feOffset dy="4"/>
<feGaussianBlur stdDeviation="3"/>
<feComposite in2="hardAlpha" operator="out"/>
<feColorMatrix type="matrix" values="0 0 0 0 0.388235 0 0 0 0 0.65098 0 0 0 0 0.752941 0 0 0 0.2 0"/>
<feBlend mode="normal" in2="BackgroundImageFix" result="effect1_dropShadow_23_23"/>
<feBlend mode="normal" in="SourceGraphic" in2="effect1_dropShadow_23_23" result="shape"/>
</filter>
</defs>
</svg>
