<svg width="38" height="36" viewBox="0 0 38 36" fill="none" xmlns="http://www.w3.org/2000/svg">
<rect x="0.422363" width="37.5776" height="36" rx="18" fill="#1CBA70"/>
<path d="M26.7157 24.2968L23.7005 21.1987C25.9566 18.1022 25.3414 13.7136 22.3264 11.3964C19.3114 9.07926 15.0382 9.71107 12.782 12.8076C10.5259 15.9041 11.141 20.2928 14.1561 22.6099C16.578 24.4713 19.9045 24.4713 22.3264 22.6099L25.343 25.708C25.722 26.0973 26.3366 26.0973 26.7157 25.708C27.0948 25.3187 27.0948 24.6875 26.7157 24.2982L26.7157 24.2968ZM18.2664 22.012C15.5868 22.012 13.4145 19.781 13.4145 17.029C13.4145 14.277 15.5868 12.046 18.2664 12.046C20.946 12.046 23.1182 14.277 23.1182 17.029C23.1154 19.7798 20.9448 22.009 18.2664 22.012Z" fill="white"/>
</svg>
